<?xml version="1.0" encoding="utf-8"?>
<!-- Generator: Adobe Illustrator 19.2.0, SVG Export Plug-In . SVG Version: 6.00 Build 0)  -->
<!DOCTYPE svg PUBLIC "-//W3C//DTD SVG 1.1//EN" "http://www.w3.org/Graphics/SVG/1.1/DTD/svg11.dtd">
<svg version="1.1" id="Layer_1" xmlns="http://www.w3.org/2000/svg" xmlns:xlink="http://www.w3.org/1999/xlink" x="0px" y="0px"
	 viewBox="0 0 841.9 595.3" style="enable-background:new 0 0 841.9 595.3;" xml:space="preserve">
<style type="text/css">
	.st0{fill-rule:evenodd;clip-rule:evenodd;fill:#F7C201;}
	.st1{fill-rule:evenodd;clip-rule:evenodd;fill:#095DA2;}
	.st2{fill:#0A478D;}
	.st3{fill:#FFFFFF;}
	.st4{fill-rule:evenodd;clip-rule:evenodd;fill:#FFE80C;}
	.st5{fill-rule:evenodd;clip-rule:evenodd;fill:#0A7EC2;}
	.st6{fill-rule:evenodd;clip-rule:evenodd;fill:#223362;}
	.st7{fill-rule:evenodd;clip-rule:evenodd;fill:#87BD30;}
	.st8{fill-rule:evenodd;clip-rule:evenodd;fill:#B8D47F;}
	.st9{fill-rule:evenodd;clip-rule:evenodd;fill:#009140;}
	.st10{fill-rule:evenodd;clip-rule:evenodd;fill:#F7E926;}
	.st11{fill-rule:evenodd;clip-rule:evenodd;fill:#E73232;}
	.st12{fill-rule:evenodd;clip-rule:evenodd;fill:#F7C4B5;}
	.st13{fill-rule:evenodd;clip-rule:evenodd;fill:#DA271D;}
	.st14{fill-rule:evenodd;clip-rule:evenodd;fill:#FFFFFF;}
	.st15{fill:#E73232;}
</style>
<g>
	<path class="st0" d="M505.2,446.8C348.7,434.5,226.3,371.6,232,306.2c5.6-65.4,137.1-108.5,293.6-96.2
		c156.5,12.2,278.8,75.2,273.2,140.6C793.1,415.9,661.7,459.1,505.2,446.8"/>
	<path class="st1" d="M435.2,137.7c-145.3,18.4-255.8,81.1-246.8,139.9c9,58.8,134.1,91.5,279.4,73.1
		c145.3-18.4,255.8-81.1,246.8-139.9C705.5,151.9,580.4,119.2,435.2,137.7"/>
	<path class="st2" d="M515.5,380.3c0,2.1-1,3.4-2.9,3.9c-1.1,0.3-2,0.1-2.8-0.5c-0.8-0.6-1.3-1.5-1.6-2.7c-0.3-1.4,0.1-2.9,1.2-4.5
		c1-1.5,2.3-2.5,3.7-2.8c6.6-1.6,10.3-0.5,10.9,3.3c0.6,3.2-0.6,6.5-3.5,10c-2.9,3.5-5.6,5.6-8,6.2c-2.9,0.7-5.5,0.5-7.8-0.7
		c-2.3-1.2-3.7-3.1-4.2-5.9c-1-5.7,0.6-12.1,4.9-19.3c4.3-7.2,9.4-11.5,15.1-12.9c4.8-1.2,9.1-0.1,13.1,3.2c4,3.3,6.4,8,7.5,13.9
		c0.7,4.3,0.8,8.1,0.1,11.4c-0.7,3.3-1.8,7.4-3.6,12.1c-4.4,11.9-5.9,22.2-4.4,30.9c0.2,1,0.4,2,0.7,3l-3,0.7l-1.6-9.8
		c-5.4,5.5-9.5,8.6-12.2,9.3c-3.3,0.8-6.2,0.5-8.8-1.1c-2.5-1.5-4.1-3.9-4.6-7.2c-0.5-3.1,0.6-6.2,3.4-9.4c2.8-3.2,6.1-5.2,10.1-6.2
		c2.8-0.7,7.2-2.1,13.2-4.1c2.2-8.8,2.8-16.3,1.7-22.5c-2.5-14.2-7-20.6-13.5-19c-6,1.5-9.9,4.4-11.8,8.9
		c-1.9,4.5-2.3,10.1-1.1,16.9c0.3,1.9,1.2,3.3,2.5,4.4c1.3,1.1,2.8,1.4,4.4,1c2-0.5,3.8-1.9,5.3-4.2c1.5-2.3,2-4.6,1.6-6.8
		c-0.2-1.2-1-2.2-2.2-2.8c-1.3-0.6-2.6-0.8-4-0.4c-0.6,0.1-1,0.6-1.4,1.3c-0.4,0.7-0.5,1.4-0.4,2c0.2,1.2,0.8,1.7,1.9,1.5
		C514.1,381.2,514.9,380.8,515.5,380.3 M529.8,404c-4.1,1.3-7.3,2.4-9.8,3.4c-2.5,1-4.3,2.7-5.5,4.9c-1.2,2.3-1.6,4.4-1.3,6.5
		c0.3,2,1.2,3.5,2.4,4.5c1.3,1,2.8,1.3,4.5,0.9c3-0.7,6-3.4,9.1-8.1L529.8,404z M586.1,418.5c-0.5,3.5-1.7,5.3-3.8,5.6
		c-3.3,0.5-5.2-1-5.4-4.5c-0.2-2.5,0.7-4.9,2.7-7.1c2-2.2,4.3-3.4,6.9-3.8c2.3-0.3,4.3,0.4,6.1,2.2c1.9,1.8,2.9,4,3.1,6.6
		c0.4,5-1.8,9.6-6.4,13.8c-4.7,4.2-9.3,6.7-14.1,7.3c-1.9,0.3-4-0.4-6.1-2.1c-2.1-1.7-3.3-3.9-3.5-6.5c-0.5-6.2-0.2-14.6,0.9-25.3
		c1-10.6,1.6-21.2,1.6-31.7c0-10.6-1.3-16.7-2.8-36.4l-9.2,1.6l0-2.6c9.4-1.3,18.5-3.9,27.4-7.9l0.2,2.6l-6.1,2.9
		c-1.3,25-1.7,32.9-2.5,41.7c-0.8,8.8-2.3,18.7-4.4,29.6c-2.1,10.9-3,18.3-2.7,22.3c0.2,2.1,1.1,4.2,2.9,6.2c1.8,2.1,3.6,3,5.3,2.8
		c4.2-0.6,7.7-2.4,10.5-5.4c2.8-3,4-6.7,3.7-11c-0.1-1.6-0.7-3-1.8-4.1c-1.1-1.1-2.4-1.6-3.9-1.4c-3.9,0.5-5.8,2.4-5.6,5.5
		c0.1,1.1,0.8,1.6,2.2,1.4c1.6-0.2,2.8-1.1,3.8-2.6L586.1,418.5z M670.8,407.1c-5.6,2.5-10.1,4.8-13.6,7.1l-3-17.4
		c-5.6,10-12.9,15.5-21.7,16.8c-6.8,0.9-13.1-0.9-19.2-5.4c-6-4.5-9.3-10.6-9.9-18.3c-0.2-3.1,0.4-6.7,2-10.8
		c1.6-4.1,3.5-7.5,5.7-10.2c2.2-2.7,4-5.6,5.6-8.9c1.5-3.3,2.2-5.8,2.1-7.5c-0.4-5.3-2.9-7.6-7.5-7c-2,0.3-3.9,1.1-5.6,2.5
		c-1.7,1.4-2.5,2.9-2.4,4.6c0.1,1.1,0.6,2.1,1.7,2.8c1,0.7,2.1,1,3.2,0.9c1.3-0.2,2.1-0.4,2.4-0.7c0.3-0.3,0.4-0.7,0.4-1.2
		c-0.1-1.2-1.2-1.9-3.4-2c1-1.3,1.8-2,2.4-2.1c0.9-0.1,1.7,0.2,2.5,0.9c0.8,0.7,1.2,1.6,1.3,2.7c0.1,1.6-0.5,3.2-1.7,4.9
		c-1.3,1.6-2.7,2.5-4.4,2.7c-1.6,0.2-3-0.3-4.5-1.7c-1.4-1.3-2.2-2.8-2.3-4.5c-0.2-3.1,0.7-6.2,2.8-9.4c2.1-3.2,4.4-5,7.1-5.3
		c2.8-0.4,5.3,0.5,7.3,2.6c2,2.1,3.1,4.8,3.4,8.1c0.3,4.6-0.5,9.2-2.7,13.8c-4.7,10.1-6.8,17.8-6.4,22.9c0.6,7.7,2.9,13.5,6.9,17.4
		c4,3.9,9.2,5.4,15.5,4.5c7.7-1.1,13.9-7.1,18.7-18.1c-2.9-15.5-6.7-30.8-11.3-45.8l-7.9,1.6l0.1-3.2c8.9-1.4,17.1-3.9,24.6-7.6
		l1,2.9l-7.5,3.1c1.2,16.8,3.7,38.6,7.5,65.5c3.5-1.3,6.8-2.8,9.8-4.7L670.8,407.1z M725.4,390.4c-4.4,3.7-8.1,6.3-11.3,7.8
		c-7.6,3.6-15.3,3.3-23.3-1c-7.9-4.3-13.7-11-17.4-20.1c-3.3-8.3-3.1-17.4,0.6-27c3.7-9.6,9.6-16.4,17.7-20.3
		c3.7-1.8,8-2.4,12.8-1.9c4.8,0.5,7.9,2.5,9.2,5.7c1.1,2.8,0.9,6.1-0.6,9.8c-1.5,3.8-3.8,6.4-6.7,7.8c-2.6,1.2-5.2,1.7-7.8,1.2
		c-2.6-0.4-4.4-1.8-5.3-4.1c-0.9-2.1-0.9-4.1,0-5.9c0.8-1.8,2.4-3.3,4.7-4.4c1.3-0.6,2.6-0.9,4-0.7c1.3,0.2,2.2,0.8,2.6,1.8
		c0.3,0.7,0.1,1.5-0.5,2.6c-0.6,1.1-1.2,1.8-1.9,2.1l-0.8,0.4c-0.2-1.7-0.3-2.8-0.5-3.3c-0.5-1.2-1.4-1.4-2.8-0.7
		c-0.8,0.4-1.3,1.2-1.5,2.5c-0.2,1.3-0.2,2.4,0.2,3.4c1.5,3.7,3.9,4.7,7.3,3.1c2.3-1.1,3.8-2.8,4.5-5.2c0.8-2.4,0.6-4.8-0.3-7.2
		c-1.1-2.9-3.3-4.7-6.5-5.6c-3.2-0.9-6.3-0.6-9.2,0.8c-6.2,3-10,8.7-11.5,17.2c-1.5,8.5-0.8,16.4,2.1,23.8
		c3.2,8.1,7.7,14.5,13.5,19.4c5.8,4.9,11.3,6.1,16.6,3.5c4.1-2,6.5-5.2,7.1-9.7L725.4,390.4z M739.9,328.1c0.9,1.9,0.6,3.5-0.9,4.8
		c-0.9,0.7-1.8,1-2.7,0.8c-1-0.2-1.9-0.8-2.6-1.8c-0.9-1.2-1.1-2.7-0.9-4.5c0.3-1.8,0.9-3.2,2.1-4.2c5.2-4.4,9-5,11.2-1.8
		c1.9,2.6,2.3,6.2,1.2,10.6c-1,4.4-2.5,7.4-4.5,9.1c-2.3,1.9-4.7,2.8-7.3,2.8c-2.6-0.1-4.7-1.2-6.3-3.5c-3.4-4.7-4.7-11.2-4-19.6
		c0.7-8.4,3.3-14.5,7.9-18.3c3.8-3.1,8.1-4.1,13.1-2.8c5,1.3,9.3,4.4,12.8,9.3c2.5,3.5,4.2,7,5.1,10.3c0.9,3.3,1.6,7.5,2.1,12.5
		c1.2,12.7,4.5,22.7,9.6,29.8c0.6,0.8,1.2,1.6,1.9,2.4l-2.4,2l-5.7-8.2c-2.5,7.4-4.7,11.9-6.8,13.7c-2.6,2.2-5.4,3.1-8.3,2.9
		c-2.9-0.3-5.3-1.8-7.3-4.5c-1.9-2.6-2.2-5.9-1.1-10c1.1-4.1,3.2-7.4,6.3-10c2.2-1.8,5.5-5,10-9.5c-1.9-8.9-4.6-15.9-8.3-21
		c-8.5-11.8-15.3-15.5-20.4-11.2c-4.7,3.9-6.9,8.3-6.7,13.2c0.2,4.9,2.4,10.1,6.4,15.7c1.1,1.6,2.5,2.5,4.2,2.9c1.7,0.4,3.1,0,4.4-1
		c1.6-1.3,2.5-3.4,2.9-6.1c0.3-2.7-0.2-5-1.5-6.8c-0.7-1-1.8-1.5-3.2-1.5c-1.4,0-2.7,0.4-3.8,1.3c-0.5,0.4-0.7,1-0.7,1.8
		c0,0.8,0.2,1.4,0.6,2c0.7,1,1.5,1.2,2.3,0.5C739.1,329.5,739.6,328.9,739.9,328.1z M763.1,343.2c-3.1,2.9-5.5,5.4-7.2,7.4
		c-1.8,2-2.7,4.3-2.8,6.9c-0.1,2.6,0.5,4.7,1.7,6.4c1.2,1.6,2.6,2.6,4.1,3c1.6,0.3,3.1,0,4.4-1.2c2.4-2,3.9-5.7,4.5-11.3
		L763.1,343.2z M476.7,463.6c1.4,0.5,2,1.3,2,2.5c-0.1,2.8-2,4.2-5.7,4.3c-1.7,0-3.4-0.7-5.1-2.3c-1.7-1.6-2.5-3.2-2.5-4.9
		c0.1-2.5,1.5-4.9,4.3-7.2c2.8-2.3,5.7-3.5,8.9-3.6c2.4-0.1,4.4,1,6.2,3.1c1.8,2.1,2.6,4.9,2.5,8.3c-0.1,3.8-2.1,7.8-5.9,12.3
		c-3.8,4.5-7.1,6.7-10.1,6.8c-5.7,0.1-9.8-1.6-12.3-5.3c-2.5-3.6-4-8.1-4.4-13.2c-0.5-5.2-0.5-11.9-0.2-20.2l2.7-46.5
		c0.2-4.7,0.2-9.5,0.1-14.4c-15.2,30.1-24.5,51.8-27.9,65l-4.7,0.5c-4.3-10.7-9.6-23-15.9-37c-6.3-14-10.4-24.9-12-32.7
		c-1,9-1.7,19.5-2.2,31.4c-0.7,19.7-0.4,40.7,0.8,62.9c3.8-0.1,8.9,0.1,15.3,0.6l-0.7,3.3c-22.6-0.2-34.3-0.3-34.9-0.5l0.5-4.3
		c7.1,0.8,12.5,1.1,16.2,0.9c-3.3-28.5-4-62.3-2.2-101.2c-8.8,0.2-14.9,0.6-18.3,1.2c-3.4,0.6-6.2,2.2-8.5,4.8
		c-2.3,2.6-3.5,6-3.7,10.2c-0.1,3.1,0.9,5.7,3.1,7.6c2.2,2,4.6,2.9,7.3,2.8c1.6,0,3-0.5,4.4-1.4c1.4-0.9,2.1-1.9,2.1-3
		c0-0.6-0.3-1.3-1-2.1c-0.7-0.8-1.3-1.2-1.8-1.1c-2.6,0.1-4.8,1.2-6.7,3.5c-1.1-0.8-1.6-1.7-1.6-2.8c0.1-1.5,0.8-2.8,2.2-4
		c1.4-1.1,2.7-1.7,3.7-1.7c1.9,0,3.8,0.8,5.9,2.4c2.1,1.6,3.1,3.4,3,5.4c-0.1,2.6-1.2,5.1-3.2,7.4c-2.1,2.3-4.2,3.5-6.5,3.5
		c-3.6,0.1-6.8-1.4-9.5-4.5c-2.7-3.1-4-7.4-3.8-13c0.2-4.3,2-8.4,5.5-12.2c3.5-3.8,7.6-5.8,12.2-5.9c4-0.1,9.8-0.5,17.5-1.2
		c7.7-0.7,13-1.3,15.9-2l1,3.6c-4,0.6-7,0.9-9,1c4.6,16.2,14.9,36.5,30.8,60.9c7.1-17.3,12.8-30.2,17-38.7
		c4.2-8.5,7.7-16.6,10.5-24.4c-0.8-0.2-4.5-0.7-11-1.6l1.1-3.5c1.8,0.6,7.3,1.4,16.4,2.3c9.2,0.9,16.9,1.5,23.3,1.6l-0.9,3.7
		c-4.1,0.1-9.4-0.3-16-1.1c-0.5,2-2.2,15-5.1,39c-2.9,24-4.5,41.7-4.9,53c-0.4,12.4,2.5,18.4,8.8,18.3c3.1-0.1,5.8-1.5,8.1-4.3
		c2.3-2.7,3.5-6.1,3.7-10.2c0.3-7.5-1.3-11.1-4.7-11.1c-1.2,0-2.5,0.6-3.8,1.8c-1.4,1.2-2.1,2.5-2.2,4c-0.1,1.9,0.3,3.5,1.1,5
		c0.8,1.5,1.7,2.2,2.8,2.2C475.8,468,476.5,466.5,476.7,463.6z"/>
	<path class="st3" d="M459.8,262.5c-2.4-15-3.7-25.4-3.7-31.2c-0.1-6.7,1.9-12.1,6-16.3c4.1-4.2,9.3-6.2,15.4-6
		c4.2,0.1,7.9,1.7,11.2,4.6c3.2,3,4.9,6.4,4.9,10.2c0,2.1-1.3,4.2-3.9,6.2c-2.6,2.1-5.3,3.1-7.9,3c-2.1-0.1-4.3-0.8-6.5-2.3
		c-2.2-1.5-3.3-2.8-3.3-4c0-1.4,0.7-2.8,2.3-4.2c1.6-1.3,3-2,4.3-2c1.9,0.1,3.1,0.3,3.6,0.8c0.5,0.5,0.7,1.1,0.8,1.9
		c0,0.6-0.3,1.5-1,2.6c-1.3-1.8-2.5-2.7-3.6-2.8c-1,0-1.4,0.9-1.4,2.9c0,1.4,0.6,2.6,1.7,3.7c1.1,1,2.1,1.6,3,1.6
		c1.2,0,2.4-1.1,3.5-3.4c1.1-2.3,1.6-4.7,1.6-7.1c0-2-0.9-4-2.5-6.1c-1.6-2-3.7-3.1-6.4-3.2c-3.5-0.1-6.4,2.2-8.5,6.9
		c-2.2,4.7-3.2,10.3-3.1,16.7c0.1,7.3,1.1,19.2,2.9,35.7c1.8,16.5,3.8,30.3,6,41.4c3.7,0.1,8.3-0.8,13.8-2.8l1.3,4
		c-6.6,1.3-12.1,2.1-16.3,2.5c-4.2,0.4-9.5,1.6-15.7,3.6l-0.4-4.9l12.9-2.1c-5.9-24.3-9.2-39.8-10-46.5c-7.9,2.1-16.5,3.8-25.8,5
		c-9.3,1.2-16.9,1.7-22.9,1.5c0.4,23.4,0.2,38.2-0.4,44.3c-0.6,6.1-2.4,11.4-5.1,15.7c-2.8,4.3-6.7,6.5-11.9,6.3
		c-2.8-0.1-5.5-1.3-8.2-3.5c-2.7-2.2-4.1-4.9-4.1-8.2c0-1.8,1.4-3.5,4.2-5.4c2.8-1.8,5.2-2.7,7.3-2.6c2.7,0.1,4.8,0.8,6.3,2.1
		c1.5,1.4,2.2,2.8,2.3,4.3c0,1.2-0.5,2.2-1.5,3c-1,0.9-2,1.3-3.2,1.2c-1.9-0.1-3.1-1.2-3.6-3.5l0.8-0.6c1,0.9,1.7,1.4,2,1.4
		c1.1,0,1.6-0.8,1.6-2.4c0-0.7-0.4-1.5-1.1-2.2c-0.7-0.8-1.5-1.2-2.3-1.2c-1.3,0-2.5,0.5-3.6,1.8c-1,1.2-1.5,2.6-1.5,4.1
		c0,2.3,0.6,4.4,1.6,6.1c1,1.7,2.3,2.6,3.9,2.6c4.2,0.1,7.5-1.9,9.7-6.2c2.2-4.3,3.3-10.4,3.1-18.3c-0.2-11.4-1.5-25.2-4.1-41.5
		c-2.6-16.3-5.8-31.9-9.6-46.8c-0.7,0.1-1.7,0.1-2.8,0.1c-2.2-0.1-4.8-0.3-7.9-0.7l0-3.3c17.3,0.9,29.7,0.7,37-0.6l0.1,3.8
		c-4.8,0.3-8.7,0.5-11.7,0.8c1.6,21.5,2.5,36.4,2.6,44.6c2.8,0.2,5.3,0.4,7.5,0.5c6.3,0.2,12.4-0.2,18.3-1.1
		C443.2,266.4,450.7,264.8,459.8,262.5"/>
	<path class="st3" d="M594.5,224.6c1.1-7.7,3.3-14,6.6-19c3.3-4.9,6.9-7.9,10.8-9.1c3.8-1.1,7.3-0.6,10.4,1.8
		c3.1,2.3,5,5.7,5.6,10.2c0.7,5.3-0.2,10-2.8,14.2c-2.6,4.2-6.4,7.1-11.2,8.5c-2.5,0.7-4.7,0.4-6.8-1c-2-1.4-3.2-3.5-3.6-6.2
		c-0.2-1.3,0.7-3.3,2.7-6c2-2.7,3.7-4.2,5.1-4.6c2.1-0.6,3.9-0.7,5.5-0.1c1.6,0.5,2.5,1.7,2.8,3.4c0.3,2-1.3,3.8-4.6,5.6
		c0.4-1.7,0.5-3.1,0.4-4c-0.3-2-1.1-2.8-2.5-2.4c-1.2,0.4-2.1,1.4-2.7,3.1c-0.6,1.7-0.8,3.3-0.6,4.7c0.2,1.3,0.9,2.5,2.3,3.4
		c1.3,0.9,2.6,1.2,3.9,0.8c3.5-1,6.1-3.1,7.7-6.2c1.7-3.1,2.3-6.5,1.7-10.3c-0.4-2.7-1.9-4.6-4.6-5.8c-2.7-1.2-5.5-1.4-8.6-0.4
		c-3.2,1-6,2.7-8.3,5.1c-2.4,2.5-4.4,6.1-6,11.1c-1.6,5-2.4,8-2.2,9.1c0.1,0.8,3.1,15,8.9,42.5c6-3.8,11.3-8.1,16-12.8l1.4,3.5
		c-5.3,4.6-10.3,8.5-15,11.6c-4.7,3.1-10.8,6.3-18.2,9.6l-0.5-4c4.5-1.3,8.8-3.2,12.8-5.7c-0.7-5.5-3.2-14.5-7.5-27.2
		c-4.3-12.6-8.4-23.2-12.4-31.5l-10.3,7.2l-1.1-2.3c9.6-5.6,16.9-11.9,22.1-19.2c0.3,4.5,0.5,7.5,0.8,9.2
		C592.9,215.7,593.7,220.2,594.5,224.6"/>
	<path class="st3" d="M678.6,224.3c-3.7,2.6-6.6,4.8-8.8,6.6c-2.2,1.8-3.6,4-4.2,6.6c-0.6,2.6-0.6,4.8,0.3,6.7
		c0.8,1.8,1.9,2.9,3.4,3.5c1.5,0.5,3,0.3,4.6-0.7c2.8-1.7,5.1-5.3,7-10.9L678.6,224.3z M659,206.4c0.5,2-0.2,3.6-2,4.7
		c-1,0.6-2,0.8-2.9,0.5c-1-0.3-1.7-1-2.2-2.1c-0.6-1.3-0.5-2.9,0.1-4.7c0.7-1.8,1.6-3.2,2.9-4c6.1-3.8,9.9-3.9,11.5-0.5
		c1.3,2.9,0.9,6.5-1.1,10.8c-2,4.3-4.2,7.2-6.4,8.6c-2.7,1.6-5.3,2.3-7.8,2c-2.5-0.4-4.3-1.8-5.4-4.2c-2.3-5.2-2.2-11.9,0.3-20.3
		c2.5-8.4,6.5-14.2,11.8-17.5c4.4-2.7,8.9-3.2,13.5-1.3c4.6,1.9,8.2,5.5,10.6,10.9c1.7,3.9,2.7,7.5,2.8,10.9
		c0.1,3.4-0.1,7.7-0.7,12.8c-1.6,13-0.6,23.4,2.9,31.2c0.4,0.9,0.9,1.8,1.4,2.6l-2.8,1.7l-3.8-8.9c-4,7.1-7.3,11.5-9.8,13
		c-3.1,1.9-6,2.5-8.8,1.9c-2.8-0.6-4.9-2.4-6.2-5.3c-1.3-2.8-0.9-6.2,1.1-10.2c2-4,4.8-7.1,8.4-9.3c2.6-1.6,6.6-4.4,12-8.4
		c0.1-9.2-1.1-16.6-3.6-22.2c-5.8-12.9-11.7-17.4-17.7-13.7c-5.5,3.4-8.7,7.6-9.5,12.6c-0.8,4.9,0.1,10.5,2.9,16.6
		c0.8,1.7,1.9,2.8,3.5,3.4c1.6,0.6,3.1,0.4,4.6-0.5c1.9-1.1,3.3-3.1,4.2-5.8c0.9-2.7,0.9-5.1,0-7.1c-0.5-1.1-1.4-1.8-2.8-1.9
		c-1.4-0.2-2.7,0.1-4,0.9c-0.5,0.3-0.9,0.9-1.1,1.7c-0.2,0.8-0.1,1.5,0.1,2c0.5,1.1,1.2,1.4,2.2,0.8
		C657.9,207.7,658.5,207.1,659,206.4z"/>
	<path class="st3" d="M527.6,248.7c-0.6,1.5-1.4,2.4-2.4,2.8c-0.7,0.2-1.3,0-2-0.5c-0.7-0.5-1-1.3-1.2-2.4c-0.2-1.3,0.2-2.6,1.2-3.8
		c1-1.3,2.2-2.1,3.5-2.5c1.5-0.5,3-0.2,4.4,0.7c1.5,0.9,2.3,2.1,2.5,3.6c0.5,3.5-0.1,6.6-1.7,9.3c-1.6,2.6-3.8,4.4-6.7,5.4
		c-2.1,0.7-4.1,0.1-5.8-1.8c-1.8-1.9-3-4.5-3.4-7.9c-0.5-4,0.6-8.1,3.4-12.4c2.8-4.3,5.9-7,9.2-8.1c6.9-2.2,13.6-0.9,20.2,3.9
		c6.6,4.8,10.4,11.3,11.5,19.6c1.3,10.3-0.7,20.6-6.2,30.9c-5.5,10.3-12,16.7-19.5,19.1c-8.5,2.7-16.7,1.4-24.5-3.8
		c-7.8-5.3-12.3-13-13.7-23.1c-1.1-8.5,1-17.6,6.2-27.3c5.3-9.7,12-16.9,20.3-21.7l1.2,1.8c-6.4,3.3-11.3,9.2-14.6,17.4
		c-3.4,8.2-4.5,16.4-3.5,24.5c1.4,11,4.8,19.3,9.9,24.9c5.2,5.5,11.2,7.2,18.2,5c5.3-1.7,9.7-6.7,13.3-15.1
		c3.6-8.4,4.7-17.3,3.5-26.6c-1.2-8.9-4.1-15.8-8.7-20.7c-4.7-4.8-9.8-6.4-15.4-4.6c-3,1-5.4,3-7,6.2c-1.7,3.2-2.3,6.3-1.9,9.3
		c0.3,1.9,1.2,3.4,2.7,4.3c1.6,1,3,1.3,4.2,0.9c1.6-0.5,3.2-1.7,4.6-3.6c1.5-1.8,2.1-3.4,1.9-4.7c-0.3-2.7-1.9-3.6-4.7-2.7
		c-1.2,0.4-1.7,1.2-1.5,2.6C525.3,248,526.1,248.4,527.6,248.7"/>
	<polygon class="st4" points="617.8,322.3 657.6,327.4 681.6,313.3 711.8,312.6 738,281.6 703.3,260.8 693.9,281.1 663.2,288.8 	"/>
	<polygon class="st4" points="616.3,425.3 642,417.1 670.2,419.6 681.8,404.8 708.5,414.6 669.4,428.5 	"/>
	<polygon class="st4" points="707.8,370.2 724,353.8 748.5,383.1 766.4,379.2 762.4,399.2 729,396.6 733.2,386.3 727.6,377.9 
		713.9,384.8 	"/>
	<polygon class="st4" points="483.5,391.1 474.7,416.5 498.2,425.4 497.7,403.3 	"/>
	<polygon class="st5" points="303.3,178.4 326.8,171.6 340.1,172.8 325.9,192.6 316.8,185.7 	"/>
	<polygon class="st5" points="405,195.9 421.5,181.4 482.7,184.4 493.6,151 561.6,148.7 643.4,170.1 622.8,183.8 585.3,170 
		548.7,212.2 526.5,208 521.3,172.1 479.2,198.5 	"/>
	<polygon class="st5" points="432.6,304.2 417.6,334.7 462.7,336.2 443.3,326.8 448.6,304.6 	"/>
	<polygon class="st5" points="569.8,292.6 553.3,320.3 600.8,306 592.9,297.5 584.3,301.1 	"/>
	<path class="st6" d="M287.7,412.2c90.6-0.4,74.9,53.7-2.4,41.4c-24.4-3.9-33.8-8.4-29.4-35.3L287.7,412.2z"/>
	<path class="st7" d="M287.3,413.8c82-0.3,67.9,46.3-2.2,35.6c-22.1-3.4-32.3-8.2-26.6-30.4L287.3,413.8z"/>
	<path class="st8" d="M318.4,418.7c28.5,5.4,23.7,23.1-6.7,26.3C335.5,437.4,335.6,427.5,318.4,418.7"/>
	<path class="st6" d="M225.4,414.3c-96.7-0.4-80,57.4,2.6,44.2c26.1-4.2,36.1-8.9,31.4-37.7L225.4,414.3z"/>
	<path class="st7" d="M225.8,416c-87.6-0.3-72.5,49.4,2.4,38.1c23.6-3.6,34.5-8.8,28.4-32.5L225.8,416z"/>
	<path class="st8" d="M197.2,421.3c-37.3,6.5-31.1,27.7,8.7,31.5C174.8,443.7,174.6,431.8,197.2,421.3"/>
	<path class="st9" d="M228.3,450.1c19.5-0.2,28.3-6.2,26.7-18C249.7,441.7,244.4,447,228.3,450.1"/>
	<path class="st9" d="M284.5,445.7c-16.2-0.2-23.6-5.2-22.2-15C266.7,438.8,271.1,443.2,284.5,445.7"/>
	<polygon class="st6" points="319.8,219.3 321.2,216.8 322.7,214.3 324.2,211.8 325.7,209.3 327.2,206.9 328.8,204.5 330.4,202.1 
		332,199.7 333.7,197.3 335.3,195 337,192.6 338.7,190.3 340.5,188 342.2,185.8 344,183.5 345.8,181.3 347.6,179.1 349.5,176.9 
		351.4,174.7 353.3,172.6 355.2,170.4 357.2,168.3 359.1,166.2 361.1,164.2 363.2,162.1 365.2,160.1 367.3,158.1 368.8,156.6 
		369.3,155.2 369.8,153.5 370.1,152 370.1,150.7 370.1,149.6 369.9,148.7 369.6,147.9 369.3,147.2 368.8,146.6 368.3,146 
		367.6,145.4 366.8,144.8 365.9,144.2 364.9,143.7 363.9,143.2 362.8,142.7 361.7,142.1 360.5,141.6 359.3,141 358.1,140.4 
		357,139.7 355.8,139 354.7,138.1 353.7,137 352.8,135.8 352.1,134.5 351.6,133 351.4,131.3 351.4,129.6 351.7,127.8 352.2,125.9 
		353,123.9 353.7,122.5 354.5,121.1 355.4,120 356.5,118.9 357.7,118.1 358.9,117.4 360.2,117 361.6,116.7 363,116.6 364.3,116.6 
		365.7,116.8 367,117.2 368.4,117.6 369.7,118.2 371,118.8 372.3,119.6 373.6,120.4 374.9,121.4 376.2,122.4 377.4,123.4 
		378.7,124.6 379.9,125.8 381.1,127.1 382.2,128.4 383.4,129.8 384.5,131.2 385.6,132.7 386.6,134.2 387.6,135.7 388.1,136.7 
		389,135.8 391,133.8 393,131.9 395,130.1 397.1,128.3 399.2,126.6 401.3,125 403.5,123.5 405.7,122.1 408,120.7 410.3,119.5 
		412.6,118.3 415,117.2 417.5,116.2 419.9,115.4 422.5,114.6 425,113.9 427.6,113.3 430.2,112.9 432.9,112.5 435.6,112.3 
		438.4,112.2 441.2,112.2 444.1,112.3 446.9,112.5 449.9,112.9 452.8,113.3 455.8,113.9 458.9,114.7 462,115.5 466,116.8 468,119.5 
		469.3,121.5 470.5,123.4 471.7,125.4 472.8,127.3 473.8,129.3 474.7,131.2 475.6,133.1 476.4,135.1 477.1,136.9 477.7,138.8 
		478.3,140.7 478.7,142.5 479.1,144.3 479.4,146.1 479.6,147.9 479.7,149.6 479.8,151.3 479.7,153 479.6,154.7 479.3,156.3 
		479,157.8 478.5,159.3 478,160.8 477.4,162.2 476.6,163.6 475.7,164.9 474.8,166.1 473.7,167.3 472.6,168.3 471.3,169.3 469,170.8 
		465.7,170 463.8,169.5 461.9,169.1 460.1,168.6 458.3,168.2 456.5,167.7 454.8,167.3 453.1,166.9 451.4,166.5 449.8,166.2 
		448.2,165.8 446.6,165.5 445,165.2 443.5,165 441.9,164.8 440.4,164.6 438.9,164.5 437.4,164.4 435.9,164.3 434.4,164.3 
		432.8,164.4 431.3,164.5 429.8,164.6 428.2,164.8 426.7,165.1 425.1,165.4 423.4,165.8 421.8,166.2 420.1,166.7 418.3,167.3 
		416.6,168 414.7,168.7 411.5,170.1 408.4,171.6 405.3,173.2 402.1,174.9 399.1,176.6 396,178.4 393,180.3 390.1,182.2 387.1,184.2 
		384.2,186.3 381.3,188.4 378.5,190.6 375.6,192.9 372.9,195.1 370.1,197.5 367.4,199.9 364.7,202.3 362,204.8 359.4,207.3 
		356.8,209.9 354.2,212.4 351.7,215 349.2,217.7 346.7,220.3 344.3,223 341.9,225.7 339.5,228.5 337.2,231.2 334.9,233.9 
		332.6,236.7 330.4,239.4 326,244.9 313.2,231.5 315.6,227 317,224.4 318.4,221.9 	"/>
	<path class="st0" d="M318.3,229.8c14-27.4,32.1-51.6,54.2-72.4c9.5-24-23.9-13.7-15.6-33c5.8-13.5,23.6,0.1,31.6,16.7
		c19.3-22.1,43.9-33.3,76.3-22.4c14.7,20,16.9,40.4,4.2,47.9c-21.1-5-34.2-10.3-54.6-1.6c-34.8,14.8-64,44.6-87.3,74L318.3,229.8z"
		/>
	<path class="st6" d="M428.7,118.4c7.2,9.9,11.5,22.7,11.8,39.6C438.5,143.5,434.7,130.2,428.7,118.4"/>
	<path class="st6" d="M445.7,135.9c9.7-1.2,20.2,0,31.6,4.5l0.1,1.1C466.7,138.2,456.1,136.3,445.7,135.9 M448.1,148.6
		c9.4-1.2,19.5-0.1,30.6,4.1l-0.4,1C468.1,150.7,458,148.9,448.1,148.6z M441.6,124.8c9.5-1.2,19.7-0.1,30.8,4.2l0.6,1.3
		C462.5,127.1,452,125.2,441.6,124.8z"/>
	<path class="st6" d="M387,138c2.1,4.5,4.4,11.1,5.1,17.8c0-5.9-1.2-11.7-3-17.2C388.4,138.4,387.7,138.2,387,138"/>
	<polygon class="st6" points="171.8,315.7 169.2,316.3 166.7,316.9 164.1,317.5 161.5,318.1 159,318.8 156.5,319.5 153.9,320.2 
		151.4,321 148.9,321.7 146.4,322.5 143.9,323.4 141.5,324.2 139,325.1 136.6,326 134.1,326.9 131.7,327.9 129.3,328.9 126.9,329.9 
		124.5,330.9 122.1,332 119.7,333.1 117.4,334.2 115,335.4 112.7,336.5 110.3,337.7 108,338.9 105.7,340.2 104,341.1 102.6,341.2 
		101,341.1 99.6,340.9 98.5,340.7 97.6,340.3 96.8,339.9 96.2,339.5 95.7,339 95.3,338.4 94.9,337.7 94.6,337 94.3,336.2 
		94.1,335.2 93.9,334.3 93.7,333.2 93.5,332.1 93.4,331 93.3,329.8 93.1,328.6 92.9,327.4 92.6,326.2 92.2,325.1 91.8,323.9 
		91.2,322.7 90.4,321.6 89.4,320.6 88.2,319.8 86.8,319.1 85.3,318.7 83.7,318.4 81.9,318.4 80,318.5 78.5,318.7 77.1,319 
		75.9,319.5 74.7,320.2 73.6,320.9 72.7,321.9 72,322.9 71.3,324 70.9,325.1 70.6,326.3 70.4,327.6 70.3,328.8 70.3,330.1 
		70.4,331.4 70.6,332.8 70.9,334.1 71.3,335.4 71.8,336.8 72.3,338.2 72.9,339.6 73.5,340.9 74.2,342.3 75,343.7 75.9,345.1 
		76.7,346.5 77.7,347.8 78.7,349.1 79.7,350.4 80.8,351.7 81.5,352.5 80.4,353 78.2,354.2 76,355.4 73.8,356.6 71.8,357.9 
		69.7,359.3 67.7,360.7 65.8,362.2 64,363.8 62.2,365.3 60.5,367 58.8,368.7 57.2,370.5 55.7,372.3 54.3,374.2 52.9,376.2 
		51.6,378.2 50.4,380.3 49.3,382.5 48.3,384.7 47.3,387 46.5,389.4 45.7,391.8 45,394.3 44.4,396.9 43.9,399.5 43.5,402.2 43.2,405 
		43,407.9 42.9,410.8 42.9,414.6 44.8,417.1 46.1,418.7 47.5,420.4 48.9,421.9 50.3,423.4 51.7,424.8 53.1,426.1 54.5,427.4 
		56,428.6 57.4,429.7 58.9,430.8 60.3,431.8 61.8,432.7 63.3,433.5 64.8,434.2 66.2,434.9 67.7,435.5 69.2,436 70.6,436.4 
		72.1,436.7 73.6,436.9 75,437.1 76.5,437.1 77.9,437 79.3,436.8 80.7,436.6 82,436.2 83.3,435.7 84.6,435.1 85.9,434.4 87,433.5 
		89,431.9 89.2,428.9 89.3,427.1 89.4,425.3 89.5,423.6 89.6,421.9 89.7,420.3 89.8,418.6 90,417.1 90.1,415.5 90.2,414 90.4,412.5 
		90.5,411.1 90.7,409.6 90.9,408.2 91.2,406.8 91.4,405.4 91.7,404.1 92,402.8 92.4,401.4 92.8,400.1 93.3,398.8 93.8,397.5 
		94.3,396.2 94.9,394.9 95.6,393.6 96.3,392.3 97.1,391 97.9,389.7 98.8,388.4 99.8,387 100.9,385.7 102,384.3 104.1,381.9 
		106.3,379.6 108.5,377.3 110.8,375 113.1,372.9 115.5,370.7 117.9,368.6 120.4,366.6 123,364.5 125.6,362.6 128.2,360.7 
		130.9,358.8 133.6,357 136.4,355.2 139.1,353.4 142,351.7 144.8,350 147.7,348.4 150.6,346.8 153.5,345.2 156.4,343.7 159.4,342.2 
		162.4,340.8 165.3,339.4 168.3,338 171.3,336.7 174.3,335.3 177.3,334.1 180.4,332.8 183.4,331.6 186.4,330.4 192.3,328.1 
		184.2,313.4 179.6,314.2 177,314.6 174.4,315.2 	"/>
	<path class="st0" d="M182.8,316c-27.4,4.7-53.1,13.7-77,27.1c-23.3,1.7-5.3-24.3-24.2-22.4c-13.1,1.3-6.3,20.3,5.8,31.7
		c-24.3,10.7-40.5,28.8-40,59.6c13.3,18.1,30.2,25.5,40.1,16.6c1.4-19.5,0.4-32.2,13.4-47.4c22.2-26,55.7-43,87.3-55.1L182.8,316z"
		/>
	<path class="st6" d="M57.1,380.9c6.6,8.9,16.4,16.1,30.9,20.9C76,396.2,65.6,389.3,57.1,380.9"/>
	<path class="st6" d="M67.6,400.3c-3.7,8-5.5,17.3-4.7,28.5l0.9,0.4C63.8,419,65,409.4,67.6,400.3 M77.8,405.8
		c-3.6,7.8-5.4,16.8-4.7,27.5l1,0C74.2,423.6,75.4,414.4,77.8,405.8z M59.1,393.8c-3.6,7.8-5.4,16.9-4.7,27.7l1,0.9
		C55.4,412.3,56.6,402.8,59.1,393.8z"/>
	<path class="st6" d="M85.2,350.4c3.3,3,8.3,6.8,14,9.2c-5.1-1.6-9.7-4.2-14-7.3C85.2,351.6,85.2,351,85.2,350.4"/>
	<path class="st6" d="M256,182.1c67.6,0,122.4,54.8,122.4,122.4c0,67.6-54.8,122.4-122.4,122.4c-67.6,0-122.4-54.8-122.4-122.4
		C133.6,236.9,188.4,182.1,256,182.1"/>
	<path class="st7" d="M258.7,187.4c64.2,0,116.3,52.1,116.3,116.3s-52.1,116.3-116.3,116.3S142.3,368,142.3,303.7
		S194.4,187.4,258.7,187.4"/>
	<path class="st6" d="M255.3,208.4c54.5,0,98.7,44.2,98.7,98.7c0,54.5-44.2,98.7-98.7,98.7c-54.5,0-98.7-44.2-98.7-98.7
		C156.7,252.6,200.9,208.4,255.3,208.4"/>
	<path class="st0" d="M254.6,212.8c52.5,0,95,42.5,95,95c0,52.5-42.5,95-95,95s-95-42.5-95-95C159.6,255.3,202.2,212.8,254.6,212.8"
		/>
	<path class="st10" d="M271.1,388.5c-5.9,1.3-12.1,2-18.4,2c-46.4,0-84-37.6-84-84c0-44.4,34.4-80.7,78.1-83.8
		c-37.5,8.4-65.6,41.9-65.6,82c0,46.4,37.6,84,84,84C267.2,388.7,269.1,388.6,271.1,388.5"/>
	<path class="st8" d="M259.9,194.3c58.5,0,105.9,47.4,105.9,105.9c0,29.9-12.4,56.9-32.3,76.1c16.4-18.8,26.4-43.3,26.4-70.2
		c0-58.9-47.7-106.6-106.6-106.6c-22.4,0-43.2,6.9-60.3,18.7C211.2,203.2,234.5,194.3,259.9,194.3"/>
	<polygon class="st6" points="256.3,310.8 362.6,344.4 355.7,365.3 414.8,349.9 376.6,302 369.7,322.4 258.4,305.2 127.9,178.7 
		156,156.9 60,130.3 74.8,225 99,201.3 254.5,309.8 	"/>
	<polygon class="st11" points="256.3,308.9 364.7,343.2 358.6,361.9 408.1,349 376,308.9 370,326.5 	"/>
	<polygon class="st11" points="256.2,308.6 123.2,179.6 149.4,159.3 63.6,135.6 76.8,220 98.6,198.6 	"/>
	<polygon class="st12" points="70.2,143.5 80.7,209.2 112.1,176.4 89.7,187.6 	"/>
	<polygon class="st12" points="369.5,339.9 377.5,317.1 398.1,345.8 379,333.3 	"/>
	<path class="st6" d="M250.7,205.2h9.3v23.2h-9.3V205.2z M295.9,384.2l8.1-4.7l6.4,9.2l-8.1,4.7L295.9,384.2z M202.4,224.4l8.1-4.7
		l6.4,9.2l-8.1,4.7L202.4,224.4z M334.8,311v-9.3H358v9.3H334.8z M154.3,312.5v-9.3h23.2v9.3H154.3z M327,352.6l4.7-8.1l10.6,6.4
		l-4.7,8.1L327,352.6z M169.4,261.8l4.7-8.1l10.1,5.9l-4.7,8.1L169.4,261.8z M303.1,234.2l-8.1-4.7l5.4-9.7l8.1,4.7L303.1,234.2z
		 M212.3,394.7l-8.1-4.7l5.4-10.1l8.1,4.7L212.3,394.7z M330.9,268.7l-4.7-8.1l10.6-6.4l4.7,8.1L330.9,268.7z M174.4,361.3l-4.7-8.1
		l9.7-6.4l4.7,8.1L174.4,361.3z M252.2,385.7h9.3v23.2h-9.3V385.7z"/>
	<path class="st6" d="M212.2,309.6c19.5,25.4,50.3,32.4,84.2,20.5l-1.2-3c-37.9,10.7-61.9-0.7-78.4-22.3L212.2,309.6z"/>
	<path class="st6" d="M213.3,307.6c-9.8,54.5,8.9,83.9,68.2,25.1C250,336.4,228.3,326.7,213.3,307.6"/>
	<path class="st13" d="M253,352.1c-16.6,11.5-33.3,13.1-36.7-7.4c6.9-1.2,13.3-1.8,18.8-1.5c1.1,3.4,0.5,7.7,0.4,11.7
		c1-4.1,1.7-8,1.3-11.5C244,344.2,249.7,346.9,253,352.1"/>
	<path class="st6" d="M205.5,305.8c4.2,3.2,10.2-0.5,11.4-7.6l3.8,0.4c-1.8,10.7-8.4,14.8-16,13L205.5,305.8z"/>
	<path class="st6" d="M258.2,238.3c7.1,0.5,12.1,11.4,11.3,24.4c-0.9,13-7.4,23.1-14.5,22.7c-7.1-0.5-12.1-11.4-11.3-24.4
		C244.7,247.9,251.1,237.8,258.2,238.3"/>
	<path class="st14" d="M258,242.3c5.9,0.4,10,10.1,9.2,21.7c-0.8,11.6-6.2,20.6-12.1,20.2c-5.9-0.4-10-10.1-9.2-21.7
		C246.7,251,252.1,241.9,258,242.3"/>
	<path class="st6" d="M257.1,263.5c3,0.2,5.2,5.2,4.8,11.2c-0.4,6-3.2,10.6-6.2,10.4c-3-0.2-5.2-5.2-4.8-11.2
		C251.3,268,254.1,263.3,257.1,263.5"/>
	<path class="st14" d="M258.3,268.5c1,0.1,1.7,1.7,1.5,3.6c-0.1,1.9-1,3.5-2,3.4c-1-0.1-1.7-1.7-1.6-3.6
		C256.4,270,257.3,268.5,258.3,268.5"/>
	<path class="st6" d="M293.3,248.5c6.6,1.9,9.1,13.2,5.6,25.2c-3.5,12-11.6,20.3-18.2,18.4c-6.6-1.9-9.1-13.2-5.6-25.2
		C278.6,254.8,286.7,246.6,293.3,248.5"/>
	<path class="st14" d="M292.2,252.3c5.5,1.6,7.4,11.5,4.3,22.3c-3.1,10.7-10,18.1-15.5,16.6c-5.5-1.6-7.4-11.6-4.3-22.3
		C279.8,258.1,286.7,250.7,292.2,252.3"/>
	<path class="st6" d="M287.1,272c2.8,0.8,3.8,5.9,2.2,11.5c-1.6,5.5-5.2,9.3-8,8.5c-2.8-0.8-3.8-5.9-2.2-11.5
		C280.7,275,284.3,271.2,287.1,272"/>
	<path class="st14" d="M287.1,277c0.9,0.3,1.2,1.9,0.7,3.7c-0.5,1.8-1.7,3-2.6,2.8c-0.9-0.3-1.2-1.9-0.7-3.7
		C285.1,277.9,286.2,276.7,287.1,277"/>
	<path class="st15" d="M562.8,477.7v-22.9h3.2v22.9H562.8z M552.8,458.5v-3.1h3.2v3.1H552.8z M552.8,477.7v-15.9h3.2v15.9H552.8z
		 M547.5,477.5c-0.5,0.2-1,0.3-1.5,0.4c-0.5,0.1-1,0.1-1.5,0.1c-0.8,0-1.5-0.1-2.1-0.4c-0.5-0.3-0.9-0.7-1.2-1.1
		c-0.3-0.5-0.5-1.1-0.6-1.7c-0.1-0.7-0.2-1.4-0.2-2.1v-8.5h-2.9v-2.3h2.9v-3.4l3.2-1v4.5h3.6v2.3h-3.6v8.9c0,0.3,0,0.7,0.1,1
		c0.1,0.3,0.2,0.6,0.3,0.8c0.1,0.2,0.4,0.4,0.6,0.6c0.3,0.1,0.6,0.2,1,0.2c0.6,0,1.2-0.1,1.7-0.4L547.5,477.5z M529.3,477.7v-9.4
		c0-0.6,0-1.1-0.1-1.6c-0.1-0.5-0.2-1-0.4-1.4c-0.2-0.4-0.5-0.7-1-1c-0.4-0.2-1-0.4-1.6-0.4c-0.7,0-1.4,0.1-1.9,0.4
		c-0.5,0.3-0.9,0.7-1.2,1.2c-0.3,0.5-0.5,1-0.6,1.6c-0.1,0.6-0.2,1.2-0.2,1.9v8.6H519v-12.2c0-0.6,0-1.2,0-1.8
		c0-0.6-0.1-1.2-0.1-1.8h3l0.1,2.7c1.1-2,2.8-3.1,5.2-3.1c1,0,1.8,0.1,2.5,0.4c0.7,0.3,1.2,0.7,1.7,1.3c0.4,0.5,0.7,1.2,0.9,2
		c0.2,0.8,0.3,1.6,0.3,2.5v10H529.3z M509.4,477.7l-0.1-2.5c-0.5,0.9-1.2,1.6-2.1,2.1c-0.9,0.5-1.9,0.8-2.9,0.8
		c-0.7,0-1.4-0.1-2-0.3c-0.6-0.2-1.2-0.5-1.7-0.8c-0.5-0.4-0.9-0.8-1.1-1.4c-0.3-0.6-0.4-1.2-0.4-2c0-1,0.2-1.9,0.7-2.6
		c0.5-0.7,1.1-1.3,1.9-1.7c0.8-0.4,1.7-0.7,2.8-0.9c1-0.2,2.2-0.3,3.3-0.3c0.2,0,0.5,0,0.8,0c0.3,0,0.6,0,0.8,0v-0.7
		c0-1.2-0.3-2.1-0.9-2.7c-0.6-0.6-1.5-0.9-2.8-0.9c-0.8,0-1.6,0.1-2.4,0.3c-0.8,0.2-1.6,0.5-2.3,1l-0.2-2.4c0.7-0.3,1.6-0.5,2.5-0.8
		c0.9-0.2,1.8-0.3,2.6-0.3c2.1,0,3.6,0.5,4.8,1.4c1.1,0.9,1.7,2.5,1.7,4.6v6.6c0,0.7,0,1.3,0,1.9c0,0.6,0.1,1.1,0.1,1.7H509.4z
		 M509.2,469.9h-0.5c-0.6,0-1.3,0-2.1,0.1c-0.8,0.1-1.5,0.2-2.1,0.4c-0.7,0.2-1.2,0.6-1.6,1c-0.4,0.5-0.7,1.1-0.7,1.9
		c0,0.9,0.3,1.5,0.9,1.9c0.6,0.4,1.3,0.6,2.1,0.6c0.8,0,1.4-0.1,1.9-0.4c0.5-0.3,0.9-0.6,1.3-1.1c0.3-0.5,0.5-1,0.7-1.6
		c0.1-0.6,0.2-1.2,0.2-1.9V469.9z M495.5,457.1c-0.5-0.2-1-0.3-1.6-0.3c-0.6,0-1,0.1-1.3,0.3c-0.3,0.2-0.5,0.5-0.7,0.9
		c-0.1,0.3-0.2,0.7-0.3,1c0,0.3,0,0.6,0,0.8v1.9h3.5v2.3h-3.5v13.6h-3.2v-13.6h-3v-2.3h3V460c0-0.7,0.1-1.3,0.2-2
		c0.1-0.6,0.3-1.2,0.7-1.8c0.3-0.5,0.8-1,1.4-1.3c0.6-0.3,1.4-0.5,2.4-0.5c0.4,0,0.8,0,1.3,0.1c0.5,0,0.9,0.1,1.2,0.3L495.5,457.1z
		 M477,477.7v-9.4c0-0.6,0-1.1-0.1-1.6c-0.1-0.5-0.2-1-0.4-1.4c-0.2-0.4-0.5-0.7-1-1c-0.4-0.2-1-0.4-1.6-0.4c-0.7,0-1.4,0.1-1.9,0.4
		c-0.5,0.3-0.9,0.7-1.2,1.2c-0.3,0.5-0.5,1-0.6,1.6c-0.1,0.6-0.2,1.2-0.2,1.9v8.6h-3.2v-12.2c0-0.6,0-1.2,0-1.8
		c0-0.6-0.1-1.2-0.1-1.8h3l0.1,2.7c1.1-2,2.8-3.1,5.2-3.1c1,0,1.8,0.1,2.5,0.4c0.7,0.3,1.2,0.7,1.7,1.3c0.4,0.5,0.7,1.2,0.9,2
		c0.2,0.8,0.3,1.6,0.3,2.5v10H477z M456.2,477.7v-21.2h3.5v21.2H456.2z M432.7,477.5c-0.5,0.2-1,0.3-1.5,0.4c-0.5,0.1-1,0.1-1.5,0.1
		c-0.8,0-1.5-0.1-2.1-0.4c-0.5-0.3-0.9-0.7-1.2-1.1c-0.3-0.5-0.5-1.1-0.6-1.7c-0.1-0.7-0.2-1.4-0.2-2.1v-8.5h-2.9v-2.3h2.9v-3.4
		l3.2-1v4.5h3.6v2.3h-3.6v8.9c0,0.3,0,0.7,0.1,1c0.1,0.3,0.2,0.6,0.3,0.8c0.1,0.2,0.3,0.4,0.6,0.6c0.3,0.1,0.6,0.2,1,0.2
		c0.6,0,1.2-0.1,1.7-0.4L432.7,477.5z M408.1,470.6c0,0.7,0.1,1.4,0.3,2.1c0.2,0.6,0.5,1.2,1,1.7c0.4,0.5,0.9,0.8,1.6,1.1
		c0.6,0.3,1.3,0.4,2.1,0.4c0.7,0,1.5-0.1,2.4-0.3c0.9-0.2,1.6-0.5,2.2-0.8l0.2,2.5c-0.8,0.3-1.7,0.5-2.6,0.7
		c-0.9,0.1-1.8,0.2-2.7,0.2c-1.3,0-2.5-0.2-3.4-0.6c-1-0.4-1.8-1-2.4-1.7c-0.6-0.7-1.1-1.6-1.4-2.6c-0.3-1-0.5-2.2-0.5-3.4
		c0-1.1,0.2-2.1,0.5-3.1c0.3-1,0.8-1.9,1.4-2.6c0.6-0.8,1.4-1.4,2.3-1.8c0.9-0.4,1.9-0.7,3-0.7c1.2,0,2.2,0.2,3,0.6
		c0.8,0.4,1.5,1,2.1,1.7c0.5,0.7,0.9,1.6,1.2,2.6c0.2,1,0.4,2,0.4,3.2v1H408.1z M415.6,468.6c0-0.6-0.1-1.1-0.2-1.7
		c-0.1-0.6-0.3-1.1-0.6-1.6c-0.3-0.5-0.6-0.9-1.1-1.2c-0.5-0.3-1-0.4-1.7-0.4c-0.7,0-1.3,0.2-1.8,0.5c-0.5,0.3-0.9,0.7-1.2,1.2
		c-0.3,0.5-0.6,1-0.7,1.6c-0.2,0.6-0.2,1.1-0.2,1.6H415.6z M401.1,457.1c-0.5-0.2-1-0.3-1.6-0.3c-0.6,0-1,0.1-1.3,0.3
		c-0.3,0.2-0.5,0.5-0.7,0.9c-0.1,0.3-0.2,0.7-0.3,1c0,0.3,0,0.6,0,0.8v1.9h3.5v2.3h-3.5v13.6h-3.2v-13.6h-3v-2.3h3V460
		c0-0.7,0.1-1.3,0.2-2c0.1-0.6,0.3-1.2,0.7-1.8c0.3-0.5,0.8-1,1.4-1.3c0.6-0.3,1.4-0.5,2.4-0.5c0.4,0,0.8,0,1.3,0.1
		c0.5,0,0.9,0.1,1.2,0.3L401.1,457.1z M387.9,457.1c-0.5-0.2-1-0.3-1.6-0.3c-0.6,0-1,0.1-1.3,0.3c-0.3,0.2-0.5,0.5-0.7,0.9
		c-0.1,0.3-0.2,0.7-0.3,1c0,0.3,0,0.6,0,0.8v1.9h3.5v2.3h-3.5v13.6h-3.2v-13.6h-3v-2.3h3V460c0-0.7,0.1-1.3,0.2-2
		c0.1-0.6,0.3-1.2,0.7-1.8c0.3-0.5,0.8-1,1.4-1.3c0.6-0.3,1.4-0.5,2.4-0.5c0.4,0,0.8,0,1.3,0.1c0.5,0,0.9,0.1,1.2,0.3L387.9,457.1z
		 M369.9,477.7l-0.1-2.7c-1.1,2-2.8,3.1-5.1,3.1c-1,0-1.8-0.2-2.5-0.5c-0.7-0.3-1.2-0.7-1.6-1.3c-0.4-0.6-0.7-1.2-0.9-2
		c-0.2-0.8-0.3-1.6-0.3-2.5v-10h3.2v9.3c0,0.6,0,1.1,0.1,1.6c0.1,0.5,0.2,1,0.4,1.4c0.2,0.4,0.5,0.7,1,1c0.4,0.2,1,0.4,1.6,0.4
		c0.7,0,1.4-0.1,1.8-0.4c0.5-0.3,0.9-0.7,1.2-1.2c0.3-0.5,0.5-1,0.6-1.6c0.1-0.6,0.2-1.2,0.2-1.9v-8.6h3.2v12.2c0,0.6,0,1.2,0,1.8
		c0,0.6,0.1,1.2,0.1,1.8H369.9z M353.2,471.7c0,1.2-0.2,2.2-0.7,3c-0.5,0.8-1.1,1.4-1.9,1.8c-0.8,0.4-1.7,0.7-2.7,0.9
		c-1,0.2-2,0.2-3,0.2h-6.1v-21.2h6.9c0.9,0,1.7,0.1,2.5,0.3c0.8,0.2,1.6,0.5,2.2,0.9c0.6,0.4,1.2,0.9,1.6,1.6
		c0.4,0.7,0.6,1.5,0.6,2.5c0,1.3-0.4,2.4-1.1,3.2c-0.7,0.8-1.7,1.4-3,1.7c1.3,0.2,2.4,0.8,3.3,1.6
		C352.8,469.2,353.2,470.3,353.2,471.7z M349.2,462.1c0-0.6-0.1-1.1-0.4-1.5c-0.2-0.4-0.6-0.7-1-1c-0.4-0.2-0.8-0.4-1.3-0.5
		c-0.5-0.1-1-0.2-1.5-0.2h-2.8v6.7h2.3c0.6,0,1.2-0.1,1.7-0.2c0.6-0.1,1.1-0.3,1.5-0.6c0.4-0.3,0.8-0.6,1-1.1
		C349.1,463.4,349.2,462.8,349.2,462.1z M349.7,471.7c0-0.8-0.2-1.5-0.5-2c-0.3-0.5-0.8-0.9-1.3-1.2c-0.5-0.3-1.1-0.5-1.8-0.6
		c-0.7-0.1-1.3-0.1-2-0.1h-1.9v7.5h2.2c0.6,0,1.2-0.1,1.9-0.1c0.6-0.1,1.2-0.3,1.7-0.6c0.5-0.3,0.9-0.7,1.2-1.1
		C349.5,473,349.7,472.4,349.7,471.7z"/>
</g>
</svg>
